<?xml version="1.0" encoding="utf-8"?>
<!-- Generator: Adobe Illustrator 27.5.0, SVG Export Plug-In . SVG Version: 6.00 Build 0)  -->
<svg version="1.1" xmlns="http://www.w3.org/2000/svg" xmlns:xlink="http://www.w3.org/1999/xlink" x="0px" y="0px"
	 viewBox="0 0 500 500" style="enable-background:new 0 0 500 500;" xml:space="preserve">
<g id="Background_Complete">
	<g>
		<rect y="382.398" style="fill:#EBEBEB;" width="500" height="0.25"/>
		<rect x="410.767" y="391.922" style="fill:#EBEBEB;" width="33.122" height="0.25"/>
		<rect x="131.471" y="395.306" style="fill:#EBEBEB;" width="49.862" height="0.25"/>
		<rect x="380.241" y="401.208" style="fill:#EBEBEB;" width="29.526" height="0.25"/>
		<rect x="52.459" y="399.528" style="fill:#EBEBEB;" width="21.597" height="0.25"/>
		<rect x="82.959" y="399.528" style="fill:#EBEBEB;" width="38.374" height="0.25"/>
		<rect x="237.544" y="389.208" style="fill:#EBEBEB;" width="93.676" height="0.25"/>
		<path style="fill:#EBEBEB;" d="M237.014,337.8H43.915c-3.147,0-5.708-2.561-5.708-5.708V60.66c0-3.147,2.561-5.708,5.708-5.708
			h193.099c3.146,0,5.707,2.561,5.707,5.708v271.432C242.721,335.239,240.16,337.8,237.014,337.8z M43.915,55.203
			c-3.01,0-5.458,2.448-5.458,5.458v271.432c0,3.01,2.448,5.458,5.458,5.458h193.099c3.009,0,5.457-2.448,5.457-5.458V60.66
			c0-3.009-2.448-5.458-5.457-5.458H43.915z"/>
		<path style="fill:#EBEBEB;" d="M453.31,337.8H260.212c-3.147,0-5.707-2.561-5.707-5.708V60.66c0-3.147,2.561-5.708,5.707-5.708
			H453.31c3.148,0,5.708,2.561,5.708,5.708v271.432C459.019,335.239,456.458,337.8,453.31,337.8z M260.212,55.203
			c-3.009,0-5.457,2.448-5.457,5.458v271.432c0,3.01,2.448,5.458,5.457,5.458H453.31c3.01,0,5.458-2.448,5.458-5.458V60.66
			c0-3.009-2.448-5.458-5.458-5.458H260.212z"/>
	</g>
	<g>
		<g>
			<g>
				<g>
					<g>
						
							<rect x="187.868" y="82.484" transform="matrix(-1 -1.224647e-16 1.224647e-16 -1 485.042 320.6484)" style="fill:#E6E6E6;" width="109.306" height="155.68"/>
						
							<rect x="183.686" y="82.484" transform="matrix(-1 -1.224647e-16 1.224647e-16 -1 476.6774 320.6484)" style="fill:#F5F5F5;" width="109.306" height="155.68"/>
						
							<rect x="167.508" y="113.179" transform="matrix(-1.836970e-16 1 -1 -1.836970e-16 398.663 -78.0145)" style="fill:#FFFFFF;" width="141.661" height="94.291"/>
						
							<rect x="121.943" y="158.743" transform="matrix(-1.836970e-16 1 -1 -1.836970e-16 353.0981 -32.4496)" style="fill:#E6E6E6;" width="141.661" height="3.162"/>
						
							<rect x="186.791" y="189.087" transform="matrix(-1 -1.224647e-16 1.224647e-16 -1 476.6773 387.5853)" style="fill:#F5F5F5;" width="103.095" height="9.41"/>
						
							<rect x="186.791" y="101.85" transform="matrix(-1 -1.224647e-16 1.224647e-16 -1 476.6773 213.1109)" style="fill:#F5F5F5;" width="103.095" height="9.41"/>
					</g>
				</g>
			</g>
			<g>
				<g>
					<g>
						
							<rect x="54.723" y="82.484" transform="matrix(-1 -1.224647e-16 1.224647e-16 -1 218.7516 320.6484)" style="fill:#E6E6E6;" width="109.306" height="155.68"/>
						
							<rect x="50.541" y="82.484" transform="matrix(-1 -1.224647e-16 1.224647e-16 -1 210.387 320.6484)" style="fill:#F5F5F5;" width="109.306" height="155.68"/>
						
							<rect x="34.363" y="113.179" transform="matrix(-1.836970e-16 1 -1 -1.836970e-16 265.5178 55.1307)" style="fill:#FFFFFF;" width="141.661" height="94.291"/>
						
							<rect x="-11.202" y="158.743" transform="matrix(-1.836970e-16 1 -1 -1.836970e-16 219.953 100.6955)" style="fill:#E6E6E6;" width="141.661" height="3.162"/>
						
							<rect x="53.646" y="189.087" transform="matrix(-1 -1.224647e-16 1.224647e-16 -1 210.3869 387.5853)" style="fill:#F5F5F5;" width="103.095" height="9.41"/>
						
							<rect x="53.646" y="101.85" transform="matrix(-1 -1.224647e-16 1.224647e-16 -1 210.3869 213.1109)" style="fill:#F5F5F5;" width="103.095" height="9.41"/>
					</g>
				</g>
			</g>
		</g>
		<g>
			<path style="fill:#E6E6E6;" d="M425.197,287.822c5.618-3.342,9.773-9.044,9.049-22.016
				c-1.213-21.728-17.834-24.256-21.595-33.668c1.145-1.214,2.233-2.892,3.239-5.215c5.531-12.767-6.581-17.445-0.408-24.388
				c3.732-4.197,1.039-9.803-3.402-12.606c-4.47-2.822-6.899-3.513-4.724-7.934c2.331-4.737-3.062-14.486-11.289-13.684
				c-9.201,0.897-9.28-5.413-15.41-2.948c-6.215,2.499,0.957,8.663-8.165,12.194c-2.12,0.82-3.395,2.035-4.034,3.452
				c-5.839-2.574-12.873-3.005-19.031,0.871c-15.087,9.496-20.676-1.313-29.115,8.233c-8.557,9.679,9.134,14.11-3.541,28.078
				c-8.462,9.325-2.174,18.259,6.897,23.052c-0.005,0-0.009,0.001-0.015,0.001c-9.974,0.497-14.693,13.102-11.07,18.35
				c3.382,4.899,0.601,6.154-4.241,10.317c-4.81,4.136-7.037,11.312-1.835,15.667c8.606,7.205-5.041,14.938,3.827,29.216
				c12.518,20.157,32.243-14.549,41.965,20.496c1.269,4.572-0.861,16.352,2.535,17.209c6.305,8.162,22.447,5.241,30.333,1.167
				c0.882-0.417-0.49-6.811,0.308-7.374c2.979-1.953,5.747-4.53,8.098-7.534c8.557-4.417,14.745,10.276,25.491-2.487
				c8.961-10.643-1.299-18.6,6.607-23.479c4.778-2.949,3.807-9.093,0.358-13.052c-3.472-3.986-5.601-5.345-2.249-8.956
				C424.483,290.027,424.949,288.996,425.197,287.822z"/>
			<g>
				<path style="fill:#F0F0F0;" d="M344.285,345.664c0,0,0.732,36.733,28.814,36.733c28.082,0,28.814-36.733,28.814-36.733H344.285z
					"/>
			</g>
		</g>
		<g>
			<g>
				<g>
					
						<rect x="45.56" y="277.214" transform="matrix(-1.836970e-16 1 -1 -1.836970e-16 427.9589 207.2173)" style="fill:#F0F0F0;" width="129.621" height="80.748"/>
					
						<rect x="91.293" y="239.165" transform="matrix(-1.836970e-16 1 -1 -1.836970e-16 385.4777 164.7361)" style="fill:#E6E6E6;" width="38.156" height="71.884"/>
					
						<rect x="91.293" y="280.746" transform="matrix(-1.836970e-16 1 -1 -1.836970e-16 427.0587 206.3171)" style="fill:#E6E6E6;" width="38.156" height="71.884"/>
					
						<rect x="91.293" y="322.327" transform="matrix(-1.836970e-16 1 -1 -1.836970e-16 468.6396 247.8981)" style="fill:#E6E6E6;" width="38.156" height="71.884"/>
					
						<rect x="69.488" y="260.97" transform="matrix(-1.836970e-16 1 -1 -1.836970e-16 363.6729 186.5408)" style="fill:#E0E0E0;" width="38.156" height="28.274"/>
					
						<rect x="69.488" y="302.551" transform="matrix(-1.836970e-16 1 -1 -1.836970e-16 405.2539 228.1219)" style="fill:#E0E0E0;" width="38.156" height="28.274"/>
					<g>
						<g>
							
								<rect x="115.362" y="320.525" transform="matrix(-1 -1.224647e-16 1.224647e-16 -1 250.308 656.2906)" style="fill:#F0F0F0;" width="19.585" height="15.241"/>
							<rect x="134.947" y="320.525" style="fill:#E0E0E0;" width="8.269" height="15.241"/>
						</g>
						<g>
							
								<rect x="83.72" y="320.525" transform="matrix(-1 -1.224647e-16 1.224647e-16 -1 187.0256 656.2906)" style="fill:#F0F0F0;" width="19.585" height="15.241"/>
							<rect x="103.305" y="320.525" style="fill:#E0E0E0;" width="8.269" height="15.241"/>
						</g>
					</g>
					
						<rect x="69.488" y="344.132" transform="matrix(-1.836970e-16 1 -1 -1.836970e-16 446.8349 269.7028)" style="fill:#E0E0E0;" width="38.156" height="28.274"/>
					
						<rect x="96.897" y="306.625" transform="matrix(-1.836970e-16 1 -1 -1.836970e-16 479.2955 155.8807)" style="fill:#F5F5F5;" width="129.621" height="21.925"/>
				</g>
				
					<rect x="93.513" y="344.691" transform="matrix(-1 -1.224647e-16 1.224647e-16 -1 231.1888 722.0384)" style="fill:#F0F0F0;" width="44.163" height="32.655"/>
				<rect x="137.676" y="344.691" style="fill:#E0E0E0;" width="8.637" height="32.655"/>
				
					<rect x="79.309" y="261.53" transform="matrix(-1 -1.224647e-16 1.224647e-16 -1 216.9845 555.7146)" style="fill:#FAFAFA;" width="58.368" height="32.655"/>
				<rect x="137.676" y="261.53" style="fill:#F0F0F0;" width="8.637" height="32.655"/>
			</g>
			<g>
				<g>
					
						<rect x="132.305" y="277.214" transform="matrix(-1.836970e-16 1 -1 -1.836970e-16 514.7034 120.4728)" style="fill:#F0F0F0;" width="129.621" height="80.748"/>
					
						<rect x="178.037" y="239.165" transform="matrix(-1.836970e-16 1 -1 -1.836970e-16 472.2222 77.9916)" style="fill:#E6E6E6;" width="38.156" height="71.884"/>
					
						<rect x="178.037" y="280.746" transform="matrix(-1.836970e-16 1 -1 -1.836970e-16 513.8032 119.5726)" style="fill:#E6E6E6;" width="38.156" height="71.884"/>
					
						<rect x="178.037" y="322.327" transform="matrix(-1.836970e-16 1 -1 -1.836970e-16 555.3842 161.1535)" style="fill:#E6E6E6;" width="38.156" height="71.884"/>
					
						<rect x="156.232" y="260.97" transform="matrix(-1.836970e-16 1 -1 -1.836970e-16 450.4174 99.7963)" style="fill:#E0E0E0;" width="38.156" height="28.274"/>
					
						<rect x="156.232" y="302.551" transform="matrix(-1.836970e-16 1 -1 -1.836970e-16 491.9984 141.3773)" style="fill:#E0E0E0;" width="38.156" height="28.274"/>
					<g>
						<g>
							
								<rect x="171.957" y="278.944" transform="matrix(-1 -1.224647e-16 1.224647e-16 -1 363.499 573.1287)" style="fill:#F0F0F0;" width="19.585" height="15.241"/>
							<rect x="191.542" y="278.944" style="fill:#E0E0E0;" width="8.269" height="15.241"/>
							<g>
								
									<rect x="195.677" y="274.609" transform="matrix(-1 -1.224647e-16 1.224647e-16 -1 416.5081 568.7941)" style="fill:#F0F0F0;" width="25.155" height="19.576"/>
								<rect x="220.831" y="274.609" style="fill:#E0E0E0;" width="10.621" height="19.576"/>
							</g>
						</g>
					</g>
					
						<rect x="156.232" y="344.132" transform="matrix(-1.836970e-16 1 -1 -1.836970e-16 533.5794 182.9583)" style="fill:#E0E0E0;" width="38.156" height="28.274"/>
					
						<rect x="183.642" y="306.625" transform="matrix(-1.836970e-16 1 -1 -1.836970e-16 566.04 69.1362)" style="fill:#F5F5F5;" width="129.621" height="21.925"/>
				</g>
				
					<rect x="169.222" y="368.998" transform="matrix(-1 -1.224647e-16 1.224647e-16 -1 391.8388 746.343)" style="fill:#F0F0F0;" width="53.394" height="8.347"/>
				<rect x="222.616" y="368.998" style="fill:#E0E0E0;" width="10.442" height="8.347"/>
				
					<rect x="178.593" y="309.222" transform="matrix(-1 -1.224647e-16 1.224647e-16 -1 404.6302 644.9882)" style="fill:#FAFAFA;" width="47.444" height="26.544"/>
				<rect x="226.037" y="309.222" style="fill:#F0F0F0;" width="7.02" height="26.544"/>
			</g>
		</g>
	</g>
</g>
<g id="Background_Simple" style="display:none;">
	<g style="display:inline;">
		<path style="fill:#407BFF;" d="M297.494,129.978c30.177-17.743,68.428-37.296,99.676,1.657
			c25.345,31.595,8.469,78.197-12.245,102.91c-23.854,28.458-62.333,22.188-94.042,38.861
			c-32.301,16.985-21.822,66.998-54.241,81.367c-31.535,13.977-76.91-18.765-95.248-45.002
			c-22.481-32.163-20.806-71.513-13.944-104.558c7.313-35.216,24.652-69.627,66.355-75.757
			C232.438,123.778,261.714,151.015,297.494,129.978z"/>
		<path style="opacity:0.9;fill:#FFFFFF;" d="M297.494,129.978c30.177-17.743,68.428-37.296,99.676,1.657
			c25.345,31.595,8.469,78.197-12.245,102.91c-23.854,28.458-62.333,22.188-94.042,38.861
			c-32.301,16.985-21.822,66.998-54.241,81.367c-31.535,13.977-76.91-18.765-95.248-45.002
			c-22.481-32.163-20.806-71.513-13.944-104.558c7.313-35.216,24.652-69.627,66.355-75.757
			C232.438,123.778,261.714,151.015,297.494,129.978z"/>
	</g>
</g>
<g id="Shadow_1_">
	<ellipse id="_x3C_Path_x3E__31_" style="fill:#F5F5F5;" cx="250" cy="416.238" rx="193.889" ry="11.323"/>
</g>
<g id="Character_1_">
	<g>
		<g>
			<polygon style="fill:#FFB573;" points="279.323,397.832 272.095,395.695 275.12,378.388 282.349,380.525 			"/>
			<polygon style="fill:#FFB573;" points="342.058,408.542 334.52,408.542 332.644,391.086 340.181,391.086 			"/>
			<path style="fill:#263238;" d="M333.901,407.669h9.19c0.308,0,0.575,0.214,0.642,0.515l1.489,6.7
				c0.155,0.695-0.392,1.353-1.104,1.34c-2.956-0.051-5.114-0.224-8.838-0.224c-2.291,0-9.2,0.238-12.364,0.238
				c-3.094,0-3.577-3.128-2.282-3.412c5.808-1.27,10.184-3.022,12.043-4.694C333.012,407.831,333.45,407.669,333.901,407.669z"/>
			<path style="fill:#263238;" d="M272.393,394.873l7.894,2.334c0.296,0.087,0.491,0.368,0.47,0.676l-0.472,6.847
				c-0.049,0.71-0.741,1.191-1.42,0.978c-2.833-0.89-6.898-2.274-10.477-3.332c-4.185-1.237-7.866-2.078-12.774-3.529
				c-2.967-0.877-2.904-4.121-1.582-4.025c6.02,0.435,10.677,1.667,16.454,0.099C271.113,394.751,271.769,394.689,272.393,394.873z"
				/>
			<path style="fill:#FFB573;" d="M324.898,178.441c-3.866,2.745-7.747,5.274-11.753,7.725c-4.004,2.433-8.079,4.772-12.3,6.943
				l-1.591,0.807l-0.441,0.222c-0.243,0.116-0.482,0.236-0.731,0.336c-0.497,0.205-1.008,0.378-1.522,0.508
				c-2.079,0.539-4.09,0.376-5.746-0.018c-3.339-0.828-5.674-2.416-7.779-4.013c-4.132-3.31-7.168-7.025-9.879-11.217l4.375-3.59
				c3.288,2.805,6.904,5.616,10.397,7.524c1.721,0.947,3.525,1.622,4.733,1.702c0.604,0.045,0.963-0.082,1.11-0.179
				c0.04-0.026,0.072-0.055,0.103-0.083c0.016-0.012,0.028-0.036,0.045-0.046l0.316-0.197l1.427-0.888
				c3.801-2.394,7.598-4.881,11.382-7.401l11.354-7.533L324.898,178.441z"/>
			<path style="fill:#263238;" d="M303.267,176.194l8.202,17.698C347.763,181.889,336.583,154.038,303.267,176.194z"/>
			<path style="opacity:0.2;" d="M322.544,177.089c-5.024,4.966-8.156,10.486-9.932,16.403c7.374-2.565,12.676-5.797,16.158-9.093
				L322.544,177.089z"/>
			<path style="fill:#FFB573;" d="M278.338,177.84l-2.669-7.575l-6.376,5.981c0,0,1.245,3.311,4.872,4.461L278.338,177.84z"/>
			<polygon style="fill:#FFB573;" points="271.345,168.23 266.375,173.743 269.293,176.246 275.669,170.265 			"/>
			<g>
				<polygon style="opacity:0.2;" points="275.121,378.393 273.56,387.314 280.791,389.452 282.352,380.531 				"/>
				<polygon style="opacity:0.2;" points="340.184,391.091 332.643,391.091 333.614,400.089 341.155,400.089 				"/>
			</g>
			<path style="fill:#263238;" d="M359.316,174.355c2.326,0.834,3.494,3.42,2.611,5.728c-2.551,6.669-4.571,13.433-6.203,19.901
				c-1.436,5.706-2.557,11.183-3.451,16.166c-2.1,11.677-2.969,20.672-3.7,23.665c-5.797-1.141-27.642-5.446-39.553-7.798
				c7.394-58.79,13.05-63.838,13.05-63.838s4.528-0.326,9.7,0.021c0.682,0.041,1.372,0.104,2.073,0.178
				c4.531,0.473,11.813,2.077,16.816,3.315c1.052,0.261,2.112,0.553,3.14,0.854C355.814,173.139,357.726,173.785,359.316,174.355z"
				/>
			<path style="opacity:0.2;" d="M352.141,185.477c-0.863,6.684,0.271,12.568,2.765,17.912c0.255-1.125,0.531-2.258,0.818-3.402
				c1.08-4.288,2.334-8.709,3.817-13.148L352.141,185.477z"/>
			<path style="fill:#FFB573;" d="M352.725,152.43l-12.06,6.776c0.222,4.411-0.506,8.917-6.823,9.168
				c-1.393,1.598-2.786,5.369,1.779,8.714l-1.002,3.115c9.006-0.662,14.131-5.579,16.037-8.512
				C347.583,167.335,350.597,157.631,352.725,152.43z"/>
			<path style="fill:#FFFFFF;" d="M323.044,235.033c-0.011,0-0.021-0.001-0.032-0.002c-0.137-0.018-0.233-0.143-0.216-0.28
				c4.331-33.521,12.506-57.505,12.588-57.743c0.044-0.131,0.192-0.199,0.317-0.155c0.131,0.045,0.2,0.187,0.155,0.318
				c-0.082,0.238-8.24,24.176-12.564,57.645C323.275,234.941,323.168,235.033,323.044,235.033z"/>
			<path style="fill:#FFFFFF;" d="M329.75,180c0,0,2.574-1.717,5.871-2.911c-1.079-1.153-1.746-6.552-0.912-9.049
				c-1,0.002-2.023,0-2.023,0S328.125,169.667,329.75,180z"/>
			<path style="fill:#FFFFFF;" d="M342.61,183.208c0,0-0.61-2.042-3.253-4.21c3.253-0.998,8.81-3.776,10.699-8.72
				c0.779,0.628,2.028,1.514,2.028,1.514S354,179.208,342.61,183.208z"/>
			<path style="fill:#FFFFFF;" d="M336.766,182.588c-0.125,0.62-0.532,1.121-0.909,1.118s-0.581-0.507-0.456-1.128
				c0.125-0.62,0.532-1.121,0.909-1.118C336.687,181.463,336.891,181.968,336.766,182.588z"/>
			<path style="opacity:0.2;" d="M347.808,155.196l-7.137,4.007c0.056,1.045,0.053,2.092-0.07,3.087
				c2.37,0.122,6.035-1.784,6.756-4.148C347.716,156.962,347.893,155.795,347.808,155.196z"/>
			<path style="fill:#263238;" d="M340.623,129.868c-5.167,1.252-7.622,11.82-1.167,15.4
				C352.067,142.433,355.171,126.344,340.623,129.868z"/>
			<path style="fill:#FFB573;" d="M356.758,143.927c-2.128,7.172-3.009,11.477-7.547,14.362c-6.825,4.339-15.035-1.068-15.092-8.731
				c-0.052-6.897,3.437-17.467,11.228-18.716C353.022,129.612,358.886,136.756,356.758,143.927z"/>
			<path style="fill:#263238;" d="M358.185,133.968c-7.323-1.767-9.529,13.638-3.074,17.218
				C369.974,147.845,365.914,135.834,358.185,133.968z"/>
			<path style="fill:#263238;" d="M356.42,129.663c-8.047-1.508-12.986-7.996-12.986-7.996s-6.73,5.205-4.815,9.247
				c1.915,4.042,10.937,8.586,15.271,8.753c0,0-2.021,9.526,6.57,4.167C371.944,136.667,364,131.083,356.42,129.663z"/>
			<path style="fill:#263238;" d="M363.207,139.56c0,0,3.113,1.495,4.431,5.072C368.272,139.011,364.368,139.408,363.207,139.56z"/>
			<path style="fill:#263238;" d="M344.404,134.963c0,0-5.522-1.394-8.826-6.74C336.401,137.513,342.579,135.59,344.404,134.963z"/>
			<path style="fill:#263238;" d="M340.82,150.809c0.001,0,0.003,0.001,0.004,0.001c3.005,0.675,4.845-1.077,4.922-1.152
				c0.076-0.074,0.077-0.195,0.004-0.271c-0.074-0.076-0.196-0.078-0.271-0.004c-0.018,0.017-1.774,1.68-4.569,1.052
				c-0.104-0.023-0.207,0.042-0.23,0.145C340.656,150.683,340.719,150.784,340.82,150.809z"/>
			<path style="fill:#FFB573;" d="M357.42,151.357c-1.243,1.335-2.881,2.004-4.246,2.074c-2.053,0.105-2.384-1.976-1.231-3.793
				c1.037-1.635,3.355-3.661,5.135-2.906C358.832,147.475,358.841,149.83,357.42,151.357z"/>
			<path style="fill:#407BFF;" d="M271.345,384.843l12.241,3.613c0,0,12.253-41.694,19.862-67.543
				c2.017-6.854,5.107-16.489,8.777-26.713c4.63-12.881,10.148-26.744,14.601-37.583c4.696-11.415,8.192-19.473,8.192-19.473
				l-26.003-5.128c0,0-21.846,59.709-26.67,82.202C277.326,337.606,271.345,384.843,271.345,384.843z"/>
			<path style="opacity:0.2;" d="M312.224,294.2c4.63-12.881,10.148-26.744,14.601-37.583l-1.985-6.205
				C317.361,257.326,312.6,281.04,312.224,294.2z"/>
			<path style="fill:#407BFF;" d="M323.044,234.783c0,0-5.235,64.588-5.25,86.673c-0.016,24.185,12.336,76.89,12.336,76.89h13.806
				c0,0-5.392-46.633-5.502-70.357c-0.125-26.861,10.133-88.171,10.133-88.171L323.044,234.783z"/>
			<polygon style="fill:#263238;" points="328.478,398.645 344.735,398.645 344.735,393.788 326.563,393.472 			"/>
			<polygon style="fill:#263238;" points="270.493,384.901 284.309,388.986 286.4,384.237 270.65,379.556 			"/>
			<path style="fill:#263238;" d="M345.254,143.41c-0.137,0.592-0.562,1-0.949,0.911c-0.387-0.09-0.59-0.642-0.453-1.235
				c0.137-0.592,0.562-1,0.949-0.911C345.188,142.265,345.391,142.818,345.254,143.41z"/>
			<path style="fill:#263238;" d="M338.558,141.863c-0.137,0.592-0.562,1-0.949,0.911s-0.59-0.642-0.453-1.235
				c0.137-0.592,0.562-1,0.949-0.91C338.492,140.718,338.695,141.27,338.558,141.863z"/>
			<path style="fill:#ED893E;" d="M340.619,142.65c0,0-2.137,3.106-4.001,4.412c0.822,1.22,2.822,1.054,2.822,1.054L340.619,142.65z
				"/>
			<path style="fill:#263238;" d="M347.833,141.726c-0.13-0.006-0.252-0.084-0.309-0.211c-0.65-1.454-1.947-1.674-1.96-1.677
				c-0.195-0.031-0.328-0.214-0.297-0.409c0.031-0.194,0.206-0.331,0.409-0.297c0.069,0.011,1.694,0.287,2.5,2.091
				c0.081,0.18,0,0.391-0.18,0.472C347.943,141.719,347.887,141.729,347.833,141.726z"/>
			<path style="fill:#263238;" d="M336.221,138.894c-0.073-0.004-0.145-0.029-0.206-0.079c-0.154-0.124-0.177-0.349-0.053-0.502
				c1.24-1.537,2.881-1.391,2.952-1.381c0.196,0.02,0.339,0.195,0.319,0.392c-0.02,0.196-0.204,0.338-0.39,0.319l0,0
				c-0.056-0.001-1.334-0.11-2.326,1.119C336.442,138.854,336.331,138.9,336.221,138.894z"/>
			<path style="fill:#407BFF;" d="M331.408,408.986c-0.573,0-1.11-0.098-1.452-0.384c-0.27-0.227-0.394-0.544-0.369-0.944
				c0.019-0.297,0.177-0.438,0.306-0.505c0.837-0.43,3.265,1.066,3.539,1.237c0.061,0.038,0.093,0.109,0.082,0.18
				c-0.012,0.071-0.065,0.128-0.134,0.145C332.857,408.841,332.105,408.986,331.408,408.986z M330.288,407.426
				c-0.094,0-0.172,0.014-0.232,0.045c-0.048,0.025-0.104,0.071-0.113,0.21c-0.018,0.284,0.062,0.496,0.242,0.648
				c0.413,0.346,1.396,0.393,2.676,0.136C332.012,407.972,330.866,407.426,330.288,407.426z"/>
			<path style="fill:#407BFF;" d="M333.338,408.72c-0.029,0-0.059-0.007-0.085-0.021c-0.78-0.424-2.288-2.076-2.129-2.916
				c0.029-0.152,0.141-0.416,0.568-0.468c0.275-0.033,0.532,0.043,0.761,0.23c0.875,0.716,1.056,2.891,1.063,2.983
				c0.005,0.066-0.026,0.128-0.081,0.164C333.406,408.711,333.372,408.72,333.338,408.72z M331.817,405.665
				c-0.027,0-0.053,0.001-0.081,0.005c-0.232,0.028-0.252,0.135-0.261,0.18c-0.094,0.496,0.866,1.744,1.642,2.333
				c-0.088-0.635-0.328-1.903-0.89-2.362C332.099,405.716,331.964,405.665,331.817,405.665z"/>
			<path style="fill:#407BFF;" d="M271.394,395.661c-0.011,0.001-0.021,0.001-0.032,0c-1.233-0.113-3.39-0.441-3.974-1.377
				c-0.176-0.282-0.201-0.594-0.075-0.927c0.076-0.199,0.22-0.328,0.418-0.372c1.014-0.218,3.492,2.103,3.77,2.37
				c0.055,0.052,0.07,0.134,0.039,0.203C271.513,395.617,271.457,395.655,271.394,395.661z M267.859,393.326
				c-0.018,0.002-0.034,0.004-0.05,0.008c-0.081,0.018-0.129,0.063-0.162,0.151c-0.086,0.226-0.072,0.426,0.043,0.611
				c0.328,0.525,1.497,0.946,3.172,1.153C269.866,394.354,268.448,393.273,267.859,393.326z"/>
			<path style="fill:#407BFF;" d="M271.394,395.661c-0.047,0.004-0.095-0.01-0.132-0.042c-0.757-0.649-2.023-2.724-1.649-3.502
				c0.088-0.182,0.297-0.381,0.779-0.29c0.36,0.068,0.65,0.261,0.863,0.574c0.696,1.027,0.315,3.031,0.298,3.116
				c-0.012,0.063-0.056,0.114-0.116,0.135C271.422,395.657,271.408,395.66,271.394,395.661z M270.12,392.163
				c-0.139,0.012-0.172,0.081-0.185,0.109c-0.224,0.467,0.587,2.042,1.319,2.841c0.075-0.597,0.162-1.837-0.295-2.511
				c-0.159-0.235-0.366-0.373-0.633-0.423C270.239,392.162,270.172,392.158,270.12,392.163z"/>
			<g>
				<path style="fill:#FFB573;" d="M361.039,176.405c0.576,0.571,0.977,0.993,1.441,1.487c0.448,0.477,0.868,0.968,1.292,1.455
					c0.84,0.978,1.654,1.971,2.445,2.982c1.577,2.026,3.042,4.146,4.39,6.36c1.347,2.216,2.586,4.522,3.648,6.949
					c1.07,2.424,1.989,4.954,2.627,7.622l0.24,1.02l0.223,1.17c0.107,0.77,0.206,1.54,0.236,2.287
					c0.066,1.501,0.009,2.953-0.15,4.348c-0.301,2.795-0.996,5.39-1.811,7.868c-1.717,4.96-4.01,9.363-6.958,13.605l-4.958-2.728
					l1.079-3.219c0.353-1.092,0.654-2.202,0.966-3.296c0.603-2.195,1.13-4.386,1.488-6.548c0.392-2.152,0.575-4.284,0.575-6.268
					c-0.005-0.993-0.093-1.941-0.241-2.822c-0.064-0.446-0.164-0.857-0.258-1.266l-0.174-0.58l-0.238-0.71
					c-1.35-3.883-3.42-7.702-5.858-11.349c-1.226-1.821-2.531-3.611-3.903-5.355c-0.681-0.875-1.382-1.735-2.1-2.574l-1.081-1.239
					l-1.013-1.133L361.039,176.405z"/>
				<path style="fill:#263238;" d="M349.808,187.308c2.351,6.632,5.092,11.672,8.953,15.379l14.467-13.783
					C359.966,163.07,346.223,177.196,349.808,187.308z"/>
				<path style="fill:#FFB573;" d="M364.551,229.642l-5.653,5.157l8.865,3.757c0,0,3.837-5.459,1.172-7.815L364.551,229.642z"/>
				<polygon style="fill:#FFB573;" points="357.811,241.001 365.283,243.764 367.762,238.557 358.898,234.799 				"/>
			</g>
		</g>
	</g>
</g>
<g id="Filing_system">
	<g>
		<g>
			<g>
				<path style="fill:#407BFF;" d="M223.916,94.837l-58.604,14.402l-3.839-8.161c-0.335-0.711-1.124-1.087-1.887-0.9l-36.294,8.919
					c-0.763,0.188-1.288,0.887-1.255,1.672l0.38,9.011l-23.405,5.752c-1.366,0.336-2.202,1.716-1.866,3.082l19.319,78.609
					c0.336,1.366,1.716,2.202,3.082,1.866l124.903-30.696c1.366-0.336,2.202-1.716,1.866-3.082l-19.319-78.609
					C226.662,95.337,225.282,94.502,223.916,94.837z"/>
				<path style="opacity:0.5;fill:#FFFFFF;" d="M223.916,94.837l-58.604,14.402l-3.839-8.161c-0.335-0.711-1.124-1.087-1.887-0.9
					l-36.294,8.919c-0.763,0.188-1.288,0.887-1.255,1.672l0.38,9.011l-23.405,5.752c-1.366,0.336-2.202,1.716-1.866,3.082
					l19.319,78.609c0.336,1.366,1.716,2.202,3.082,1.866l124.903-30.696c1.366-0.336,2.202-1.716,1.866-3.082l-19.319-78.609
					C226.662,95.337,225.282,94.502,223.916,94.837z"/>
			</g>
			
				<rect x="127.111" y="107.509" transform="matrix(0.9711 -0.2387 0.2387 0.9711 -22.0286 37.2112)" style="fill:#FFFFFF;" width="31.083" height="4.132"/>
		</g>
		<g>
			<g>
				<path style="fill:#407BFF;" d="M225.673,120.956l-63,15.483l-3.839-8.161c-0.334-0.711-1.124-1.087-1.887-0.9l-36.294,8.92
					c-0.763,0.187-1.288,0.887-1.255,1.672l0.38,9.011l-19.008,4.671c-1.366,0.336-2.202,1.716-1.866,3.082l19.319,78.609
					c0.336,1.366,1.716,2.201,3.082,1.866l124.903-30.696c1.366-0.336,2.202-1.716,1.866-3.082l-19.319-78.609
					C228.419,121.456,227.039,120.621,225.673,120.956z"/>
				<path style="opacity:0.4;fill:#FFFFFF;" d="M225.673,120.956l-63,15.483l-3.839-8.161c-0.334-0.711-1.124-1.087-1.887-0.9
					l-36.294,8.92c-0.763,0.187-1.288,0.887-1.255,1.672l0.38,9.011l-19.008,4.671c-1.366,0.336-2.202,1.716-1.866,3.082
					l19.319,78.609c0.336,1.366,1.716,2.201,3.082,1.866l124.903-30.696c1.366-0.336,2.202-1.716,1.866-3.082l-19.319-78.609
					C228.419,121.456,227.039,120.621,225.673,120.956z"/>
			</g>
			
				<rect x="124.472" y="134.708" transform="matrix(0.9711 -0.2387 0.2387 0.9711 -28.596 37.3668)" style="fill:#FFFFFF;" width="31.083" height="4.132"/>
		</g>
		<g>
			<g>
				<path style="fill:#407BFF;" d="M227.43,147.075l-67.397,16.563l-3.839-8.161c-0.335-0.711-1.124-1.087-1.888-0.9l-36.294,8.919
					c-0.763,0.187-1.288,0.887-1.255,1.672l0.38,9.011l-14.612,3.591c-1.366,0.336-2.202,1.716-1.866,3.082l19.319,78.609
					c0.336,1.366,1.716,2.201,3.082,1.866l124.903-30.696c1.366-0.336,2.202-1.716,1.866-3.082l-19.319-78.609
					C230.176,147.575,228.796,146.74,227.43,147.075z"/>
				<path style="opacity:0.3;fill:#FFFFFF;" d="M227.43,147.075l-67.397,16.563l-3.839-8.161c-0.335-0.711-1.124-1.087-1.888-0.9
					l-36.294,8.919c-0.763,0.187-1.288,0.887-1.255,1.672l0.38,9.011l-14.612,3.591c-1.366,0.336-2.202,1.716-1.866,3.082
					l19.319,78.609c0.336,1.366,1.716,2.201,3.082,1.866l124.903-30.696c1.366-0.336,2.202-1.716,1.866-3.082l-19.319-78.609
					C230.176,147.575,228.796,146.74,227.43,147.075z"/>
			</g>
			
				<rect x="121.832" y="161.908" transform="matrix(0.9711 -0.2387 0.2387 0.9711 -35.1639 37.5233)" style="fill:#FFFFFF;" width="31.083" height="4.132"/>
		</g>
		<g>
			<g>
				<path style="fill:#407BFF;" d="M277.591,175.249l-73.834,3.757l-2.227-8.739c-0.194-0.761-0.898-1.28-1.683-1.24l-37.325,1.899
					c-0.784,0.04-1.432,0.628-1.548,1.405l-1.33,8.92l-10.506,0.535c-1.405,0.071-2.486,1.268-2.415,2.673l4.114,80.844
					c0.072,1.405,1.269,2.486,2.674,2.415l128.453-6.537c1.405-0.072,2.487-1.269,2.415-2.674l-4.114-80.844
					C280.193,176.258,278.996,175.177,277.591,175.249z"/>
				<path style="opacity:0.2;fill:#FFFFFF;" d="M277.591,175.249l-73.834,3.757l-2.227-8.739c-0.194-0.761-0.898-1.28-1.683-1.24
					l-37.325,1.899c-0.784,0.04-1.432,0.628-1.548,1.405l-1.33,8.92l-10.506,0.535c-1.405,0.071-2.486,1.268-2.415,2.673
					l4.114,80.844c0.072,1.405,1.269,2.486,2.674,2.415l128.453-6.537c1.405-0.072,2.487-1.269,2.415-2.674l-4.114-80.844
					C280.193,176.258,278.996,175.177,277.591,175.249z"/>
			</g>
			
				<rect x="165.901" y="172.986" transform="matrix(0.9987 -0.0508 0.0508 0.9987 -8.6621 9.4476)" style="fill:#FFFFFF;" width="31.083" height="4.132"/>
		</g>
		<g>
			<g>
				<path style="fill:#407BFF;" d="M230.944,199.313l-76.189,18.724l-3.839-8.161c-0.335-0.711-1.124-1.087-1.887-0.9l-36.294,8.919
					c-0.763,0.187-1.288,0.887-1.255,1.672l0.38,9.011l-5.819,1.43c-1.366,0.336-2.202,1.716-1.866,3.082l19.319,78.609
					c0.336,1.366,1.716,2.202,3.082,1.866l124.903-30.696c1.366-0.336,2.202-1.716,1.866-3.082l-19.319-78.609
					C233.69,199.813,232.31,198.977,230.944,199.313z"/>
				<path style="opacity:0.1;fill:#FFFFFF;" d="M230.944,199.313l-76.189,18.724l-3.839-8.161c-0.335-0.711-1.124-1.087-1.887-0.9
					l-36.294,8.919c-0.763,0.187-1.288,0.887-1.255,1.672l0.38,9.011l-5.819,1.43c-1.366,0.336-2.202,1.716-1.866,3.082
					l19.319,78.609c0.336,1.366,1.716,2.202,3.082,1.866l124.903-30.696c1.366-0.336,2.202-1.716,1.866-3.082l-19.319-78.609
					C233.69,199.813,232.31,198.977,230.944,199.313z"/>
			</g>
			
				<rect x="116.553" y="216.307" transform="matrix(0.9711 -0.2387 0.2387 0.9711 -48.299 37.8352)" style="fill:#FFFFFF;" width="31.083" height="4.132"/>
		</g>
		<g>
			<path style="fill:#407BFF;" d="M232.701,225.432l-124.903,30.696c-1.366,0.336-2.201,1.715-1.866,3.082l19.319,78.609
				c0.336,1.366,1.715,2.202,3.082,1.866l124.903-30.696c1.366-0.336,2.202-1.716,1.866-3.082l-19.319-78.609
				C235.447,225.932,234.067,225.096,232.701,225.432z"/>
			<path style="fill:#407BFF;" d="M151.118,247.76l-39.845,9.792c-1.012,0.249-1.999-0.491-2.043-1.533l-0.391-9.252
				c-0.033-0.785,0.492-1.484,1.255-1.672l36.294-8.92c0.763-0.188,1.552,0.189,1.887,0.9l3.942,8.379
				C152.661,246.398,152.13,247.511,151.118,247.76z"/>
			
				<rect x="113.913" y="243.506" transform="matrix(0.9711 -0.2387 0.2387 0.9711 -54.8661 37.9908)" style="fill:#FFFFFF;" width="31.083" height="4.132"/>
		</g>
	</g>
</g>
</svg>
